<?xml version="1.0" encoding="utf-8"?>
<!-- Generator: Adobe Illustrator 19.2.1, SVG Export Plug-In . SVG Version: 6.00 Build 0)  -->
<svg version="1.1" id="Layer_1" xmlns="http://www.w3.org/2000/svg" xmlns:xlink="http://www.w3.org/1999/xlink" x="0px" y="0px"
	 viewBox="0 0 480 480" style="enable-background:new 0 0 480 480;" xml:space="preserve">
<style type="text/css">
	.st0{fill:#8CC63F;stroke:#000000;stroke-width:3;stroke-miterlimit:10;}
	.st1{fill:none;stroke:#000000;stroke-width:3;stroke-miterlimit:10;}
	.st2{fill:none;stroke:#000000;stroke-width:4;stroke-miterlimit:10;}
</style>
<g>
	<path class="st0" d="M400.4,217.1l-78.1-104.6l-170,53.8c-0.3,0.3-0.8,0-1.1,0.3L221,275.5L400.4,217.1L400.4,217.1z"/>
	<line class="st1" x1="151.2" y1="166.6" x2="83.9" y2="239.2"/>
	<path class="st0" d="M221,359.2"/>
	<path class="st0" d="M221,273.5"/>
	<path class="st0" d="M223.5,367.5l177-59v-85.1c-0.1-0.4,0-3.2,0-3.2c-1.8-1.2-0.7,0-2-1.7l-177.5,57v91.1
		C221.9,367,222.7,367.3,223.5,367.5z"/>
	<path class="st0" d="M83.9,239.2c0,29.9,0,52.9,0,82.8"/>
	<line class="st1" x1="223.5" y1="367.5" x2="83.9" y2="322"/>
	<path class="st0" d="M83.9,239.2"/>
	<path class="st0" d="M221,273.5"/>
</g>
<rect class="st2" width="480" height="480"/>
<line class="st1" x1="0" y1="275.5" x2="83.9" y2="275.5"/>
<path class="st1" d="M484.4,275.5"/>
<line class="st1" x1="400.5" y1="275.5" x2="480" y2="275.5"/>
<g>
	<path d="M453.6,369c2.8-4.5,2.8-10.2,0-15.8c-4.3-9-15.7-18.1-28.9-18.1c-4.5,0-8.8,1-12.6,3.1c-2.8-1.2-5.5-1.9-8.3-1.9
		c-9,0-14.5,6.9-16.5,10.3c-9.1-1.4-16.7,2.6-20.1,10.5c-3.4,7.7-2.4,17.6,2.4,24.1c-3.4,8.4-2.4,18.1,2.6,26
		c5.9,9.1,15.8,14.1,26,12.6c4.3,2.9,8.4,4.8,12.4,5.9v40.5h5.2v-39.6c0.5,0,1,0,1.5,0l0,0c16,0,24.6-15.1,26.7-19.3
		c6.5-2.8,10.8-7.1,12.9-12.7C460.4,384.7,455.5,373.2,453.6,369z M451.8,393.1c-1.5,4.5-5.2,7.9-10.8,10l-1,0.3l-0.5,1
		c0,0.2-7.6,17-22.4,17c-5.3,0-11-2.2-17-6.5l-0.9-0.5l-1,0.2c-8.3,1.5-16.7-2.4-21.7-10.2c-4.3-6.9-5-15.3-1.5-22.6l0.7-1.5l-1-1.2
		c-4.3-5-5.5-13.6-2.6-20c1.4-2.9,4.6-7.7,11.9-7.7c1.4,0,2.8,0.2,4.3,0.5l2.1,0.5l0.9-1.9c0-0.2,4.5-9.1,12.7-9.1
		c2.2,0,4.6,0.7,7.1,1.9l1.2,0.7l1.2-0.7c3.4-2.1,7.2-3.1,11.2-3.1c11,0,20.7,7.7,24.3,15.1c1.2,2.6,2.9,7.6-0.3,11.7l-1,1.4
		l0.9,1.5C448.4,370.3,455.5,383.2,451.8,393.1z"/>
	<path d="M392.5,366.8c-3.1,0-3.6-6.2-3.6-6.2l-5.2,0.3c0.3,4.1,2.4,11,8.8,11c7.1,0,10.8-6.5,10.8-11.2h-5.2
		C398.3,362.9,396.6,366.8,392.5,366.8z"/>
	<path d="M430.8,387.8c-3.1,0-3.6-6.2-3.6-6.2l-5.2,0.3c0.3,4.1,2.4,11,8.8,11c7.1,0,10.8-6.5,10.8-11.2h-5.2
		C436.5,383.9,434.8,387.8,430.8,387.8z"/>
</g>
<g>
	<path d="M112.2,322.6c2.8-4.5,2.8-10.2,0-15.8c-4.3-9-15.7-18.1-28.9-18.1c-4.5,0-8.8,1-12.6,3.1c-2.8-1.2-5.5-1.9-8.3-1.9
		c-9,0-14.5,6.9-16.5,10.3c-9.1-1.4-16.7,2.6-20.1,10.5c-3.4,7.7-2.4,17.6,2.4,24.1c-3.4,8.4-2.4,18.1,2.6,26
		c5.9,9.1,15.8,14.1,26,12.6c4.3,2.9,8.4,4.8,12.4,5.9v40.5h5.2v-39.6c0.5,0,1,0,1.5,0l0,0c16,0,24.6-15.1,26.7-19.3
		c6.5-2.8,10.8-7.1,12.9-12.7C119.1,338.2,114.1,326.7,112.2,322.6z M110.5,346.7c-1.5,4.5-5.2,7.9-10.8,10l-1,0.3l-0.5,1
		c0,0.2-7.6,17-22.4,17c-5.3,0-11-2.2-17-6.5l-0.9-0.5l-1,0.2c-8.3,1.5-16.7-2.4-21.7-10.2c-4.3-6.9-5-15.3-1.5-22.6l0.7-1.5l-1-1.2
		c-4.3-5-5.5-13.6-2.6-20c1.4-2.9,4.6-7.7,11.9-7.7c1.4,0,2.8,0.2,4.3,0.5l2.1,0.5l0.9-1.9c0-0.2,4.5-9.1,12.7-9.1
		c2.2,0,4.6,0.7,7.1,1.9l1.2,0.7l1.2-0.7c3.4-2.1,7.2-3.1,11.2-3.1c11,0,20.7,7.7,24.3,15.1c1.2,2.6,2.9,7.6-0.3,11.7l-1,1.4
		l0.9,1.5C107,323.8,114.1,336.7,110.5,346.7z"/>
	<path d="M51.1,320.3c-3.1,0-3.6-6.2-3.6-6.2l-5.2,0.3c0.3,4.1,2.4,11,8.8,11c7.1,0,10.8-6.5,10.8-11.2h-5.2
		C56.9,316.4,55.2,320.3,51.1,320.3z"/>
	<path d="M89.5,341.3c-3.1,0-3.6-6.2-3.6-6.2l-5.2,0.3c0.3,4.1,2.4,11,8.8,11c7.1,0,10.8-6.5,10.8-11.2h-5.2
		C95.2,337.4,93.4,341.3,89.5,341.3z"/>
</g>
<g>
	<path d="M117.5,41.3c14.9,0,27.7,10.6,30.7,25.4l0.6,2.9l2.9,0.1C162,70.3,170,78.8,170,89c0,10.9-8.9,19.7-19.7,19.7H89.4
		c-13.5,0-24.4-10.9-24.4-24.4c0-12.5,9.4-22.9,21.7-24.1l2-0.2l0.9-1.7C95.2,47.8,105.8,41.3,117.5,41.3 M117.5,37.6
		c-13.6,0-25.2,7.7-31.1,19c-14.1,1.4-25.1,13.4-25.1,27.9c0,15.5,12.6,28.1,28.1,28.1h61c12.9,0,23.4-10.5,23.4-23.5
		c0-12.4-9.6-22.5-21.7-23.2C148.7,49.8,134.7,37.6,117.5,37.6L117.5,37.6z"/>
</g>
</svg>
