<?xml version="1.0" encoding="utf-8"?>
<!-- Generator: Adobe Illustrator 19.2.1, SVG Export Plug-In . SVG Version: 6.00 Build 0)  -->
<svg version="1.1" id="Layer_1" xmlns="http://www.w3.org/2000/svg" xmlns:xlink="http://www.w3.org/1999/xlink" x="0px" y="0px"
	 viewBox="0 0 480 321" style="enable-background:new 0 0 480 321;" xml:space="preserve">
<style type="text/css">
	.st0{fill:#8CC63F;stroke:#000000;stroke-width:3;stroke-miterlimit:10;}
	.st1{fill:none;stroke:#000000;stroke-width:3;stroke-miterlimit:10;}
</style>
<g>
	<path class="st0" d="M400.4,139.1L322.3,34.5l-170,53.8c-0.3,0.3-0.8,0-1.1,0.3L221,197.5L400.4,139.1L400.4,139.1z"/>
	<line class="st1" x1="151.2" y1="88.6" x2="83.9" y2="161.2"/>
	<path class="st0" d="M221,281.2"/>
	<path class="st0" d="M221,195.5"/>
	<path class="st0" d="M223.5,289.5l177-59v-85.1c-0.1-0.4,0-3.2,0-3.2c-1.8-1.2-0.7,0-2-1.7l-177.5,57v91.1
		C221.9,289,222.7,289.3,223.5,289.5z"/>
	<path class="st0" d="M83.9,161.2c0,29.9,0,52.9,0,82.8"/>
	<line class="st1" x1="223.5" y1="289.5" x2="83.9" y2="244"/>
	<path class="st0" d="M83.9,161.2"/>
	<path class="st0" d="M221,195.5"/>
</g>
</svg>
