<?xml version="1.0" encoding="utf-8"?>
<!-- Generator: Adobe Illustrator 19.2.1, SVG Export Plug-In . SVG Version: 6.00 Build 0)  -->
<svg version="1.1" id="Layer_1" xmlns="http://www.w3.org/2000/svg" xmlns:xlink="http://www.w3.org/1999/xlink" x="0px" y="0px"
	 viewBox="0 0 480 480" style="enable-background:new 0 0 480 480;" xml:space="preserve">
<style type="text/css">
	.st0{fill:none;stroke:#000000;stroke-width:4;stroke-miterlimit:10;}
</style>
<g>
	<line class="st0" x1="56" y1="418" x2="424" y2="418"/>
	<polyline class="st0" points="74,418 74,166.8 204,105.5 204,65 408.7,65 405.8,418 	"/>
	<line class="st0" x1="204" y1="105.5" x2="204" y2="418"/>
	<rect x="239.3" y="115.3" class="st0" width="47.7" height="47.7"/>
	<rect x="322.9" y="115.3" class="st0" width="47.7" height="47.7"/>
	<rect x="322.9" y="181" class="st0" width="47.7" height="47.7"/>
	<rect x="322.9" y="246.7" class="st0" width="47.7" height="47.7"/>
	<rect x="239.3" y="246.7" class="st0" width="47.7" height="47.7"/>
	<rect x="239.3" y="181" class="st0" width="47.7" height="47.7"/>
	<rect x="257.2" y="322.5" class="st0" width="95.5" height="95.5"/>
	<rect x="119.8" y="187" class="st0" width="47.7" height="47.7"/>
	<rect x="119.8" y="264.6" class="st0" width="47.7" height="47.7"/>
	<rect x="119.8" y="342.2" class="st0" width="47.7" height="47.7"/>
</g>
</svg>
