<?xml version="1.0" encoding="utf-8"?>
<!-- Generator: Adobe Illustrator 19.2.1, SVG Export Plug-In . SVG Version: 6.00 Build 0)  -->
<svg version="1.1" id="Layer_1" xmlns="http://www.w3.org/2000/svg" xmlns:xlink="http://www.w3.org/1999/xlink" x="0px" y="0px"
	 viewBox="0 0 480 480" style="enable-background:new 0 0 480 480;" xml:space="preserve">
<g>
	<path d="M331,297.1c29.7-14.2,50-44.3,50-79.2c0-2.7-1.3-4.9-3.5-6.6c-2.2-1.3-4.9-1.8-7.1-0.9l-18.2,6.2
		c2.2-8.9,3.1-17.7,3.1-26.6c0-63.3-51.4-114.7-114.7-114.7S126,126.7,126,190c0,9.3,0.9,18.2,3.1,27l-19.5-6.6
		c-2.7-0.9-5.3-0.4-7.1,0.9c-2.2,1.3-3.5,4-3.5,6.6c0,35,20.8,65.5,50.5,79.7C110,313.5,82.6,352,82.6,396.7c0,4.4,3.5,8,8,8h298.8
		c4.4,0,8-3.5,8-8C398.7,351.6,370.4,313,331,297.1z M293.8,289.6c-0.9,0-1.3,0-2.2,0h-8.4c11.1-10.2,18.2-23.9,19.5-39.4l61.5-20.8
		C358.8,263.5,329.2,289.6,293.8,289.6z M254.4,92.6c-5.3,3.5-9.7,8-13.3,13.3c-3.5-5.3-8-9.7-13.3-13.3c4.4-0.4,8.9-0.9,13.3-0.9
		C245.5,91.7,249.9,91.7,254.4,92.6z M142.8,190c0-40.3,23.9-74.8,58.4-89.9c17.7,0.4,31.9,14.6,31.9,32.3c0,4.4,3.5,8,8,8
		s8-3.5,8-8c0-17.7,14.2-31.9,31.9-32.3c34.5,15.5,58.4,50,58.4,89.9c0,11.1-1.8,22.1-5.8,32.8L292,236.9c-3.1,0.9-5.3,4-5.3,7.5
		c0,24.3-19.5,44.7-44.3,45.2H238c-24.3-0.4-44.3-20.8-44.3-45.2c0-3.5-2.2-6.6-5.3-7.5l-40.3-13.7
		C144.6,212.6,142.8,201.5,142.8,190z M188,289.6c-35.9,0-65.5-26.1-70.8-60.2l61.5,20.8c1.3,15.5,8.9,29.2,19.5,39.4h-7.5
		C189.7,289.6,188.8,289.6,188,289.6L188,289.6z M190.6,305.5h42.5v82.8H100.3C104.3,342.3,143.2,305.5,190.6,305.5z M249.1,388.3
		v-82.8h42.5c0.4,0,1.3,0,1.8,0l0,0l0,0c46.5,0.9,84.6,37.2,88.5,82.8H249.1z"/>
	<path d="M211.9,224.9c0,0.4,0,0.4,0,0.9c0,0.4,0,0.4,0,0.9s0,0.4,0.4,0.9c0,0.4,0,0.4,0.4,0.9c0,0.4,0.4,0.4,0.4,0.9l0.4,0.4
		l0.4,0.4l0.4,0.4l0.4,0.4c0.4,0,0.4,0.4,0.9,0.4c0,0,0.4,0,0.4,0.4l0,0c0.4,0,0.9,0.4,1.3,0.4h0.4c0.4,0,0.9,0,1.3,0c0,0,0,0,0.4,0
		l0,0H253c4.4,0,8-3.5,8-8c0-4.4-3.5-8-8-8h-20.4l15.9-33.6c1.8-4,0-8.9-4-10.6s-8.9,0-10.6,4L212.8,221l0,0c0,0.4,0,0.4-0.4,0.9
		c0,0.4,0,0.4,0,0.9c0,0.4,0,0.4,0,0.9s0,0.4,0,0.9l0,0C211.9,224.5,211.9,224.9,211.9,224.9z"/>
	<path d="M196.8,206.4c0-4.4-3.5-8-8-8c-10.2,0-18.6-8.4-18.6-18.6c0-4.4-3.5-8-8-8s-8,3.5-8,8c0,19,15.5,34.5,34.5,34.5
		C193.3,214.3,196.8,210.8,196.8,206.4z"/>
	<path d="M285.4,206.4c0,4.4,3.5,8,8,8c19,0,34.5-15.5,34.5-34.5c0-4.4-3.5-8-8-8s-8,3.5-8,8c0,10.2-8.4,18.6-18.6,18.6
		C288.9,198.4,285.4,201.9,285.4,206.4z"/>
	<circle cx="188.8" cy="179.3" r="8"/>
	<circle cx="293.3" cy="179.3" r="8"/>
	<path d="M212.8,257.3h5.8v9.7c0,4.4,3.5,8,8,8s8-3.5,8-8v-9.7h12.4v9.7c0,4.4,3.5,8,8,8c4.4,0,8-3.5,8-8v-9.7h7.5c4.4,0,8-3.5,8-8
		s-3.5-8-8-8h-57.6c-4.4,0-8,3.5-8,8C204.8,253.7,208.3,257.3,212.8,257.3z"/>
	<path d="M213.6,354.7c4.4,0,8-3.5,8-8V329c0-4.4-3.5-8-8-8s-8,3.5-8,8v17.7C205.7,351.1,209.2,354.7,213.6,354.7z"/>
	<circle cx="213.6" cy="368.8" r="8"/>
</g>
</svg>
